<?xml version="1.0" encoding="utf-8"?>
<!-- Generated by IcoMoon.io -->
<!DOCTYPE svg PUBLIC "-//W3C//DTD SVG 1.1//EN" "http://www.w3.org/Graphics/SVG/1.1/DTD/svg11.dtd">
<svg version="1.1" xmlns="http://www.w3.org/2000/svg" xmlns:xlink="http://www.w3.org/1999/xlink" width="400" height="16" viewBox="0 0 400 16">
<g transform="translate(0 0)">
	<path d="M15.504 13.616l-3.79-3.223c-0.392-0.353-0.811-0.514-1.149-0.499 0.895-1.048 1.435-2.407 1.435-3.893 0-3.314-2.686-6-6-6-3.314 0-6 2.686-6 6 0 3.314 2.686 6 6 6 1.486 0 2.845-0.54 3.893-1.435-0.016 0.338 0.146 0.757 0.499 1.149l3.223 3.79c0.552 0.613 1.453 0.665 2.003 0.115s0.498-1.452-0.115-2.003zM6 10c-2.209 0-4-1.791-4-4s1.791-4 4-4 4 1.791 4 4-1.791 4-4 4z" fill="#ffffff" />
</g>
<g transform="translate(32 0)">
	<path d="M14.897 1.166l-0.063-0.063c-1.471-1.471-3.878-1.471-5.349 0l-3.408 3.408c-1.471 1.471-1.471 3.878 0 5.349l0.063 0.063c0.122 0.123 0.252 0.233 0.386 0.335l1.248-1.248c-0.145-0.086-0.283-0.189-0.408-0.313l-0.063-0.063c-0.799-0.798-0.799-2.098 0-2.897l3.408-3.408c0.799-0.799 2.098-0.799 2.897 0l0.063 0.063c0.798 0.799 0.798 2.098 0 2.897l-1.542 1.542c0.268 0.661 0.395 1.366 0.383 2.069l2.384-2.384c1.471-1.471 1.471-3.878-0-5.349zM9.86 6.077c-0.122-0.122-0.252-0.233-0.386-0.335l-1.248 1.247c0.145 0.086 0.283 0.189 0.408 0.313l0.063 0.063c0.799 0.799 0.799 2.098 0 2.897l-3.408 3.408c-0.799 0.798-2.098 0.798-2.897 0l-0.063-0.063c-0.798-0.799-0.798-2.098 0-2.897l1.542-1.542c-0.268-0.661-0.394-1.366-0.383-2.069l-2.384 2.384c-1.471 1.471-1.471 3.878 0 5.349l0.063 0.063c1.471 1.471 3.878 1.471 5.349 0l3.408-3.408c1.471-1.471 1.471-3.878 0-5.349l-0.063-0.063z" fill="#ffffff" />
</g>
<g transform="translate(64 0)">
	<path d="M8 0c4.418 0 8 3.582 8 8s-3.582 8-8 8-8-3.582-8-8 3.582-8 8-8zM8 14.5c3.59 0 6.5-2.91 6.5-6.5s-2.91-6.5-6.5-6.5-6.5 2.91-6.5 6.5 2.91 6.5 6.5 6.5zM10 4c0.552 0 1 0.448 1 1s-0.448 1-1 1h-2.586l4.293 4.293c0.391 0.391 0.391 1.024 0 1.414-0.195 0.195-0.451 0.293-0.707 0.293s-0.512-0.098-0.707-0.293l-4.293-4.293v2.586c0 0.552-0.448 1-1 1s-1-0.448-1-1v-6h6z" fill="#ffffff" />
</g>
<g transform="translate(96 0)">
	<path d="M8 0c-4.418 0-8 3.582-8 8s3.582 8 8 8 8-3.582 8-8-3.582-8-8-8zM8 14.5c-3.59 0-6.5-2.91-6.5-6.5s2.91-6.5 6.5-6.5 6.5 2.91 6.5 6.5-2.91 6.5-6.5 6.5zM6 4c-0.552 0-1 0.448-1 1s0.448 1 1 1h2.586l-4.293 4.293c-0.391 0.391-0.391 1.024 0 1.414 0.195 0.195 0.451 0.293 0.707 0.293s0.512-0.098 0.707-0.293l4.293-4.293v2.586c0 0.552 0.448 1 1 1s1-0.448 1-1v-6h-6z" fill="#ffffff" />
</g>
<g transform="translate(128 0)">
	<path d="M16 8c0 4.418-3.582 8-8 8s-8-3.582-8-8 3.582-8 8-8 8 3.582 8 8zM1.5 8c0 3.59 2.91 6.5 6.5 6.5s6.5-2.91 6.5-6.5-2.91-6.5-6.5-6.5-6.5 2.91-6.5 6.5zM8.707 3.293l4 4c0.391 0.391 0.391 1.024 0 1.414s-1.024 0.391-1.414 0l-2.293-2.293v5.586c0 0.552-0.448 1-1 1s-1-0.448-1-1v-5.586l-2.293 2.293c-0.391 0.391-1.024 0.391-1.414 0-0.195-0.195-0.293-0.451-0.293-0.707s0.098-0.512 0.293-0.707l4-4c0.391-0.39 1.024-0.39 1.414 0z" fill="#ffffff" />
</g>
<g transform="translate(160 0)">
	<path d="M8 0c-4.418 0-8 3.582-8 8s3.582 8 8 8 8-3.582 8-8-3.582-8-8-8zM8 14.5c-3.59 0-6.5-2.91-6.5-6.5s2.91-6.5 6.5-6.5 6.5 2.91 6.5 6.5-2.91 6.5-6.5 6.5zM12.707 7.293l-4-4c-0.39-0.391-1.024-0.391-1.414 0s-0.391 1.024 0 1.414l2.293 2.293h-5.586c-0.552 0-1 0.448-1 1s0.448 1 1 1h5.586l-2.293 2.293c-0.391 0.391-0.391 1.024 0 1.414 0.195 0.195 0.451 0.293 0.707 0.293s0.512-0.098 0.707-0.293l4-4c0.39-0.391 0.39-1.024 0-1.414z" fill="#ffffff" />
</g>
<g transform="translate(192 0)">
	<path d="M8 16c-4.418 0-8-3.582-8-8s3.582-8 8-8 8 3.582 8 8-3.582 8-8 8zM8 1.5c-3.59 0-6.5 2.91-6.5 6.5s2.91 6.5 6.5 6.5 6.5-2.91 6.5-6.5-2.91-6.5-6.5-6.5zM6 12c-0.552 0-1-0.448-1-1s0.448-1 1-1h2.586l-4.293-4.293c-0.391-0.391-0.391-1.024 0-1.414 0.195-0.195 0.451-0.293 0.707-0.293s0.512 0.098 0.707 0.293l4.293 4.293v-2.586c0-0.552 0.448-1 1-1s1 0.448 1 1v6h-6z" fill="#ffffff" />
</g>
<g transform="translate(224 0)">
	<path d="M16 8c0-4.418-3.582-8-8-8s-8 3.582-8 8 3.582 8 8 8 8-3.582 8-8zM1.5 8c0-3.59 2.91-6.5 6.5-6.5s6.5 2.91 6.5 6.5-2.91 6.5-6.5 6.5-6.5-2.91-6.5-6.5zM8.707 12.707l4-4c0.391-0.39 0.391-1.024 0-1.414s-1.024-0.391-1.414 0l-2.293 2.293v-5.586c0-0.552-0.448-1-1-1s-1 0.448-1 1v5.586l-2.293-2.293c-0.391-0.391-1.024-0.391-1.414 0-0.195 0.195-0.293 0.451-0.293 0.707s0.098 0.512 0.293 0.707l4 4c0.391 0.39 1.024 0.39 1.414 0z" fill="#ffffff" />
</g>
<g transform="translate(256 0)">
	<path d="M8 16c4.418 0 8-3.582 8-8s-3.582-8-8-8-8 3.582-8 8 3.582 8 8 8zM8 1.5c3.59 0 6.5 2.91 6.5 6.5s-2.91 6.5-6.5 6.5-6.5-2.91-6.5-6.5 2.91-6.5 6.5-6.5zM10 12c0.552 0 1-0.448 1-1s-0.448-1-1-1h-2.586l4.293-4.293c0.391-0.391 0.391-1.024 0-1.414-0.195-0.195-0.451-0.293-0.707-0.293s-0.512 0.098-0.707 0.293l-4.293 4.293v-2.586c0-0.552-0.448-1-1-1s-1 0.448-1 1v6h6z" fill="#ffffff" />
</g>
<g transform="translate(288 0)">
	<path d="M8 0c4.418 0 8 3.582 8 8s-3.582 8-8 8-8-3.582-8-8 3.582-8 8-8zM8 14.5c3.59 0 6.5-2.91 6.5-6.5s-2.91-6.5-6.5-6.5-6.5 2.91-6.5 6.5 2.91 6.5 6.5 6.5zM3.293 7.293l4-4c0.391-0.391 1.024-0.391 1.414 0s0.391 1.024 0 1.414l-2.293 2.293h5.586c0.552 0 1 0.448 1 1s-0.448 1-1 1h-5.586l2.293 2.293c0.391 0.391 0.391 1.024 0 1.414-0.195 0.195-0.451 0.293-0.707 0.293s-0.512-0.098-0.707-0.293l-4-4c-0.39-0.391-0.39-1.024 0-1.414z" fill="#ffffff" />
</g>
<g transform="translate(320 0)">
	<path d="M10.904 5.11l-1.015-1.014-5.075 5.074c-0.841 0.841-0.841 2.204 0 3.044 0.841 0.841 2.204 0.841 3.045 0l6.090-6.089c1.402-1.401 1.402-3.673 0-5.074-1.401-1.402-3.674-1.402-5.075 0l-6.394 6.393c-0.005 0.005-0.010 0.009-0.014 0.013-1.955 1.955-1.955 5.123 0 7.077 1.954 1.954 5.123 1.954 7.078 0 0.004-0.004 0.008-0.009 0.013-0.014l0.001 0.001 4.365-4.364-1.015-1.014-4.365 4.363c-0.005 0.004-0.009 0.009-0.013 0.013-1.392 1.392-3.656 1.392-5.048 0-1.392-1.391-1.392-3.655 0-5.047 0.005-0.005 0.009-0.009 0.014-0.013l-0.001-0.001 6.395-6.393c0.839-0.84 2.205-0.84 3.045 0 0.839 0.84 0.839 2.205 0 3.044l-6.090 6.089c-0.28 0.28-0.735 0.28-1.015 0-0.28-0.279-0.28-0.735 0-1.014l5.075-5.075z" fill="#ffffff" />
</g>
<g transform="translate(352 0)">
	<path d="M15.504 13.616l-3.79-3.223c-0.392-0.353-0.811-0.514-1.149-0.499 0.895-1.048 1.435-2.407 1.435-3.893 0-3.314-2.686-6-6-6-3.314 0-6 2.686-6 6 0 3.314 2.686 6 6 6 1.486 0 2.845-0.54 3.893-1.435-0.016 0.338 0.146 0.757 0.499 1.149l3.223 3.79c0.552 0.613 1.453 0.665 2.003 0.115s0.498-1.452-0.115-2.003zM6 10c-2.209 0-4-1.791-4-4s1.791-4 4-4 4 1.791 4 4-1.791 4-4 4zM7 3h-2v2h-2v2h2v2h2v-2h2v-2h-2z" fill="#ffffff" />
</g>
<g transform="translate(384 0)">
	<path d="M15.504 13.616l-3.79-3.223c-0.392-0.353-0.811-0.514-1.149-0.499 0.895-1.048 1.435-2.407 1.435-3.893 0-3.314-2.686-6-6-6-3.314 0-6 2.686-6 6 0 3.314 2.686 6 6 6 1.486 0 2.845-0.54 3.893-1.435-0.016 0.338 0.146 0.757 0.499 1.149l3.223 3.79c0.552 0.613 1.453 0.665 2.003 0.115s0.498-1.452-0.115-2.003zM6 10c-2.209 0-4-1.791-4-4s1.791-4 4-4 4 1.791 4 4-1.791 4-4 4zM3 5h6v2h-6z" fill="#ffffff" />
</g>
</svg>
