<?xml version="1.0" encoding="utf-8"?>
<!-- Generator: Adobe Illustrator 17.0.0, SVG Export Plug-In . SVG Version: 6.00 Build 0)  -->
<!DOCTYPE svg PUBLIC "-//W3C//DTD SVG 1.1//EN" "http://www.w3.org/Graphics/SVG/1.1/DTD/svg11.dtd">
<svg version="1.1" id="Layer_1" xmlns="http://www.w3.org/2000/svg" xmlns:xlink="http://www.w3.org/1999/xlink" x="0px" y="0px"
	 width="510px" height="220px" viewBox="0 0 510 220" enable-background="new 0 0 510 220" xml:space="preserve">
<g>
	<polygon fill="#FFB600" points="471.723,65.7 395.037,220 440.936,220 508.531,83.993 508.842,41.123 	"/>
	<polygon fill="#FFFFFF" points="402.978,220 469.62,108.793 470.217,95.216 342.907,25.178 258.481,178.642 333.66,220 	"/>
	<path fill="#1CB0F6" d="M161.874,220c6.125-11.824,17.821-34.517,18.029-35.763c0.282-1.69-6.195-116.3-5.914-117.144
		c0.282-0.845-18.21-20.181-18.21-20.181l-6.946-11.452c0,0-123.105,64.439-125.78,65.988s-3.379,7.04-5.35,7.04
		c-1.971,0-5.924-1.004-8.166,0.282c-7.697,4.412-8.26,9.105-7.04,15.769C3.866,132.017,42.22,202.653,51.114,220H161.874z"/>
	<polygon opacity="0.4" fill="#1571B7" points="77.327,220 24.344,114.947 19.567,117.356 71.335,220 	"/>
	<g opacity="0.4">
		<path fill="#1571B7" d="M92.897,197.35c-0.637,0-1.224-0.36-1.511-0.934l-40.555-81.1c-0.2-0.401-0.233-0.865-0.092-1.29
			c0.142-0.425,0.447-0.776,0.847-0.977l34.064-16.753c0.835-0.417,0.724,0.484,1.14,1.319l43.29,79.248
			c0.171,0.264,0.271,0.579,0.271,0.917c0,0.931-0.753,1.686-1.684,1.69c-0.157,0.001-0.307-0.018-0.458-0.059l-24.672-6.679
			l-9.064,23.534c-0.24,0.625-0.827,1.048-1.495,1.08C92.952,197.35,92.924,197.35,92.897,197.35z"/>
	</g>
	<path fill="#FFFFFF" d="M12.541,111.304c3.004,0,4.506,1.314,7.885,1.314s2.441-6.571,6.383-8.823s119.585-62.702,119.585-62.702
		l0.939,12.766l-1.502,10.701c0,0-112.451,58.572-114.516,58.948c-2.065,0.375-3.379-1.877-5.256-1.877
		c-1.877,0-7.134,9.574-10.888,9.574s-10.325-3.755-10.325-10.325S8.974,111.304,12.541,111.304z"/>
	<polygon opacity="0.3" points="137.915,220 181.318,220 163.326,27.715 103.215,59.958 125.404,76.198 	"/>
	
		<polygon fill="#D33131" stroke="#D33131" stroke-width="6" stroke-linecap="round" stroke-linejoin="round" stroke-miterlimit="10" points="
		126.399,173.276 100.256,166.199 90.645,191.155 50.09,110.055 85.844,92.176 	"/>
	<polygon fill="#EA9053" points="481.212,65.122 487.407,92.718 508.328,84.4 508.531,83.993 508.842,41.123 471.93,65.564 	"/>
	<polygon opacity="0.2" points="505.177,43.549 496.981,78.638 477.897,117.236 452.893,103.588 395.037,220 440.936,220 
		443.44,214.961 508.531,83.993 508.842,41.123 	"/>
	<path fill="#7AC70C" d="M409.716,220l60.651-108.994c0.403-0.725,0.143-1.639-0.582-2.043c-0.209-0.116-0.434-0.171-0.658-0.182
		l0.104-0.19L341.921,38.554l-84.425,153.464L308.36,220H409.716z"/>
	<ellipse opacity="0.3" cx="438.785" cy="144.907" rx="12.033" ry="12.766"/>
	<path fill="#7AC70C" d="M472.114,94.601c-0.397,0.728-1.31,0.996-2.038,0.599L341.052,24.774c-0.728-0.397-0.996-1.31-0.599-2.038
		l0,0c0.397-0.728,1.31-0.996,2.038-0.599l129.025,70.425C472.244,92.96,472.512,93.872,472.114,94.601L472.114,94.601z"/>
	<polygon opacity="0.3" points="385.643,220 404.148,72.256 415.073,61.647 352.71,27.715 352.71,220 	"/>
	<path fill="#282828" d="M378.623,220V34.233c0-18.814-15.252-34.066-34.066-34.066H178.012c-18.814,0-34.066,15.252-34.066,34.066
		V220H378.623z"/>
	<rect x="173.478" y="32.456" fill="#FFFFFF" width="177.506" height="187.544"/>
	<circle fill="#1CB0F6" cx="226.367" cy="200.851" r="18.627"/>
	<circle cx="261.474" cy="16.267" r="6.056"/>
	<circle fill="#D33131" cx="292.26" cy="198.599" r="18.627"/>
	<circle fill="#082433" cx="261.474" cy="16.267" r="4.179"/>
	<ellipse opacity="0.5" fill="#166689" cx="261.474" cy="14.763" rx="2.489" ry="1.548"/>
	<path fill="#CECECE" d="M441.292,135.768c6.481,0,8.82,5.056,16.36,5.056c5.273,0,2.957-5.35,0.422-7.603
		c2.722-4.998,6.453-11.663,6.453-11.663s12.179,6.666,12.179,21.754s-9.22,18.022-22.003,18.022s-24.518-7.125-24.518-15.717
		C430.185,140.902,433.329,135.768,441.292,135.768z"/>
	<path fill="#282828" d="M508.698,60.934l0.144-19.811l-16.48,10.912C498.441,53.162,505.305,55.987,508.698,60.934z"/>
	<ellipse fill="#FFFFFF" cx="441.788" cy="142.631" rx="4.928" ry="2.746"/>
	<ellipse opacity="0.3" cx="406.683" cy="201.79" rx="12.033" ry="12.766"/>
	<circle fill="#FFB600" cx="258.469" cy="77.512" r="18.627"/>
	<rect x="173.478" y="32.456" fill="#E0E0E0" width="177.355" height="17.881"/>
	<polygon fill="#FFB600" points="304.932,171.714 279.307,171.714 279.307,169.445 304.932,164.376 	"/>
	<polygon fill="#FFB600" points="238.475,171.714 212.85,171.714 212.85,169.445 238.475,164.376 	"/>
	<polygon fill="#FFB600" points="271.141,110.326 245.515,110.326 245.515,108.057 271.141,102.988 	"/>
	<circle fill="#7F7F7F" cx="185.535" cy="41.468" r="5.632"/>
	<rect x="234.533" y="37.525" fill="#C4C4C4" width="51.814" height="8.448"/>
	<path fill="#DD8800" d="M262.656,68.453l-1.852,2.042l1.371,0.987l-2.084,5.043l0.878-4.276l-1.864-1.425l1.906-3.716
		c-0.769-0.462-1.583-0.728-2.427-0.728c-4.647,0-8.415,8.047-8.415,12.695c0,4.647,3.767,8.086,8.415,8.086
		c4.648,0,8.415-3.438,8.415-8.086C266.998,75.906,265.245,71.155,262.656,68.453z"/>
	<circle fill="#D33131" cx="226.278" cy="137.84" r="18.627"/>
	<polygon fill="#FF931D" points="233.414,135.545 231.966,131.201 235.299,133.645 	"/>
	<polygon fill="#DD691B" points="235.293,133.651 232.914,134.044 233.414,135.545 	"/>
	<ellipse fill="#FFB103" cx="226.363" cy="136.965" rx="7.124" ry="9.334"/>
	<path fill="#FFD833" d="M232.229,131.667c-1.286-2.435-3.434-4.032-5.866-4.032c-3.935,0-7.124,4.176-7.124,9.33
		c0,0.144,0.003,0.284,0.008,0.426c1.373,1.596,3.302,2.59,5.439,2.59C228.818,139.981,232.173,136.27,232.229,131.667z"/>
	<g>
		<path fill="#FFFFFF" d="M233.809,137.175l-1.352,1.868l-3.225-2.481l-4.866,5.027l-1.483-3.352l-1.289,0.838l-2.257-2.579
			l-2.502,2.48c-0.018,0.271-0.027,0.541-0.027,0.803c0,5.729,4.217,9.362,9.421,9.362c5.201,0,9.42-3.633,9.42-9.362
			c0-0.345-0.017-0.697-0.047-1.054L233.809,137.175z"/>
	</g>
	<circle fill="#FFFFFF" cx="227.926" cy="133.136" r="2.411"/>
	<circle fill="#1F455E" cx="228.039" cy="133.113" r="1.252"/>
	<circle fill="#FFFFFF" cx="227.173" cy="132.423" r="0.784"/>
	
		<ellipse transform="matrix(0.8422 0.5392 -0.5392 0.8422 104.4309 -102.248)" fill="#FFDA00" cx="226.898" cy="127.288" rx="0.404" ry="1.154"/>
	
		<ellipse transform="matrix(-0.761 0.6487 -0.6487 -0.761 479.6121 77.3501)" fill="#FFDA00" cx="225.559" cy="127.015" rx="0.52" ry="1.486"/>
	<path fill="#FFCCCC" d="M235.648,139.78c0-0.345-0.017-0.697-0.047-1.054l-0.675-0.584c-1.281,4.756-5.754,8.033-11.092,8.033
		c-2.08,0-4.027-0.501-5.709-1.389c1.64,2.75,4.65,4.356,8.103,4.356C231.429,149.142,235.648,145.509,235.648,139.78z"/>
	<circle fill="#7AC70C" cx="291.374" cy="138.074" r="18.627"/>
	<path fill="#FFFFFF" d="M295.302,133.218c0.38,0.776,0.599,1.643,0.599,2.565c0,3.225-2.614,5.838-5.838,5.838
		c-0.146,0-0.289-0.008-0.432-0.019c0.366,2.248,1.39,4.473,2.834,5.601c1.961,1.536-1.037-3.103,0.731-2.822
		c0.045,0.007,0.1,0.013,0.146,0.016c0.598,0.212,1.24,0.334,1.911,0.334c3.179,0,5.756-2.577,5.756-5.758
		C301.01,135.81,298.459,133.245,295.302,133.218z"/>
	<g>
		<path fill="#FFFFFF" d="M282.634,137.109c-0.008-0.069-0.014-0.137-0.021-0.206c-0.165-1.754,0.031-2.811,0.079-3.029
			c0.004-0.018,0.005-0.021,0.007-0.027l0.006,0.005c0.553-2.616,2.874-4.58,5.653-4.58c3.192,0,5.78,2.588,5.78,5.781
			c0,3.191-2.588,5.778-5.78,5.778c-0.673,0-1.317-0.121-1.918-0.332c-0.046-0.006-0.1-0.012-0.147-0.018
			c-1.775-0.283,1.235,4.376-0.731,2.835c-1.407-1.102-2.418-3.238-2.812-5.426"/>
		<polygon fill="#FFFFFF" points="282.698,133.847 282.698,133.847 282.701,133.834 		"/>
	</g>
	<path opacity="0.3" fill="#7AC70C" d="M293.98,133.729c-0.553,3.199-3.206,5.626-6.401,5.626c-1.99,0-3.77-0.944-4.964-2.427
		c0.007,0.06,0.013,0.121,0.019,0.182l0.115,0.78c0.394,2.188,1.404,4.325,2.812,5.426c1.967,1.542-1.043-3.117,0.731-2.835
		c0.047,0.006,0.101,0.012,0.147,0.018c0.602,0.211,1.246,0.332,1.918,0.332c3.192,0,5.78-2.588,5.78-5.778
		C294.138,134.596,294.08,134.154,293.98,133.729z"/>
	<path opacity="0.3" fill="#7AC70C" d="M300.896,137.638c-0.553,3.199-3.206,5.626-6.401,5.626c-1.615,0-3.084-0.628-4.221-1.654
		c-0.07,0.002-0.139,0.01-0.21,0.01c-0.144,0-0.287-0.008-0.428-0.019l0.029,0.197c0.394,2.188,1.404,4.325,2.812,5.426
		c1.967,1.542-1.043-3.117,0.731-2.835c0.047,0.006,0.101,0.012,0.147,0.018c0.602,0.211,1.246,0.332,1.918,0.332
		c3.192,0,5.78-2.588,5.78-5.778C301.054,138.506,300.996,138.064,300.896,137.638z"/>
	<path fill="#3D1F16" d="M301.028,200.322h-2.612c-0.681,1.281-1.523,2.306-2.496,3.076h5.108c0.85,0,1.539-0.69,1.539-1.538
		C302.567,201.011,301.878,200.322,301.028,200.322z"/>
	<path fill="#6B8937" d="M302.418,198.082c-1.006-0.862-1.956-0.834-2.575-0.662c-0.038,0.011-0.072,0.023-0.108,0.034
		c-0.219,0.712-0.494,1.398-0.82,2.055c0.375-0.165,0.627-0.371,0.711-0.448l0.011-0.008c0.018-0.015,0.025-0.02,0.042-0.037
		c0.027-0.023,0.25-0.211,0.573-0.289c0.427-0.105,0.845,0.025,1.278,0.394c0.286,0.246,0.718,0.213,0.964-0.076
		C302.739,198.76,302.705,198.328,302.418,198.082z"/>
	<path fill="#C67A46" d="M302.577,196.277c-0.107-2.226-0.983-3.774-2.374-4.825c0.091,0.638,0.139,1.28,0.139,1.942
		c0,1.156-0.144,2.317-0.413,3.342h2.282C302.618,196.736,302.577,196.277,302.577,196.277z"/>
	<path fill="#FFBD7B" d="M285.409,192.999l0.157-1.681l2.776-1.096l2.344-0.43l3.675,0.079c0,0,2.579,0.39,2.697,0.47
		c0.117,0.076,1.485,0.273,1.485,0.273s1.055,0.703,1.055,0.858c0,0.157-1.055,1.956-1.055,1.956l-8.443,0.859l-3.675-0.235
		L285.409,192.999z"/>
	<path fill="#FF9700" d="M297.123,200.433c-1.543,0-4.059,2.32-4.343,2.48c-0.284,0.16-0.543-0.013-0.543-0.013
		c-3.171-2.418-4.442-2.48-4.442-2.48"/>
	<path fill="#C67A46" d="M302.043,204.166h-6.829c-1.292,1.025-2.774,1.795-4.387,2.306h10.618c0.655,0,1.186-0.496,1.186-1.153
		C302.631,204.664,302.698,204.166,302.043,204.166z"/>
	<path fill="#E29256" d="M283.023,204.166c-0.655,0-0.631,0.498-0.631,1.153c0,0.657,0.531,1.153,1.187,1.153h7.248
		c1.613-0.511,3.095-1.28,4.387-2.306H283.023z"/>
	<path fill="#562C1F" d="M298.416,200.322h-1.751c-0.026,0-0.081,0.065-0.168,0.065c-1.335,0-3.516,2.033-3.761,2.172
		c-0.246,0.137-0.471-0.05-0.471-0.05c-2.745-2.095-3.846-2.187-3.846-2.187h-4.402c-0.85,0-1.538,0.688-1.538,1.538
		c0,0.848,0.688,1.538,1.538,1.538h11.903C296.893,202.628,297.735,201.604,298.416,200.322z"/>
	<g>
		<path fill="#A0CE51" d="M299.021,199.46c-0.034,0.016-0.069,0.033-0.105,0.047C298.953,199.493,298.987,199.476,299.021,199.46z"
			/>
		<path fill="#A0CE51" d="M299.735,197.455c0.036-0.011,0.071-0.024,0.108-0.034c-0.579,0.161-0.969,0.482-1.079,0.581l-0.012,0.008
			c-0.014,0.014-0.029,0.025-0.043,0.038c-0.002,0.003-0.217,0.19-0.529,0.278c-0.394,0.11-0.781,0.021-1.178-0.273
			c-0.06-0.048-0.119-0.097-0.178-0.141c-0.009-0.006-0.018-0.014-0.027-0.019c-0.917-0.666-1.765-0.631-2.335-0.473
			c-0.578,0.161-0.968,0.482-1.078,0.581l-0.012,0.008c-0.019,0.015-0.026,0.022-0.041,0.036c-0.028,0.024-0.251,0.213-0.574,0.29
			c-0.379,0.091-0.751,0-1.133-0.281c-0.061-0.051-0.121-0.099-0.18-0.144c-0.009-0.005-0.018-0.012-0.026-0.018
			c-0.917-0.666-1.765-0.631-2.334-0.473c-0.43,0.121-0.756,0.328-0.941,0.468c-0.024,0.014-0.049,0.033-0.073,0.052
			c-0.433,0.371-0.851,0.5-1.277,0.396c-0.266-0.064-0.463-0.202-0.541-0.264c-0.012-0.01-0.023-0.019-0.035-0.029
			c-0.015-0.013-0.021-0.019-0.039-0.034l-0.011-0.008c-0.11-0.099-0.501-0.457-1.079-0.619c-0.189-0.051-0.41-0.132-0.653-0.132
			c-0.001,0-0.001,0-0.001,0c-0.017,0-0.032,0-0.048,0c-0.013,0-0.027,0-0.039,0c-0.004,0-0.007,0-0.01,0
			c-0.241,0-0.459,0.082-0.647,0.132c-0.606,0.17-1.005,0.531-1.093,0.613c-0.027,0.022-0.056,0.054-0.083,0.079
			c-0.287,0.244-0.321,0.683-0.076,0.968c0.245,0.288,0.677,0.371,0.964,0.126c0.323-0.278,0.639-0.381,0.956-0.381
			c0.01,0,0.021,0,0.031,0c0.011,0,0.021,0,0.032,0c0.303,0,0.605,0.095,0.913,0.349c0.14,0.119,0.514,0.381,1.05,0.531
			c0.2,0.056,0.434,0.085,0.694,0.085c0.534,0,1.174-0.177,1.841-0.733l0.002-0.001c0.003-0.001,0.216-0.19,0.529-0.277
			c0.396-0.11,0.783-0.021,1.181,0.274c0.05,0.04,0.1,0.08,0.15,0.118c0.015,0.013,0.032,0.025,0.048,0.037
			c0.595,0.432,1.16,0.57,1.641,0.57c0.26,0,0.495-0.042,0.696-0.095c0.579-0.163,0.968-0.483,1.079-0.583l0.011-0.008
			c0.018-0.015,0.025-0.02,0.041-0.037c0.028-0.023,0.251-0.211,0.574-0.289c0.381-0.093,0.754,0.001,1.138,0.285
			c0.05,0.041,0.1,0.08,0.149,0.117c0.018,0.015,0.034,0.026,0.053,0.04c0.593,0.432,1.16,0.57,1.64,0.57
			c0.26,0,0.494-0.042,0.695-0.095c0.133-0.038,0.255-0.084,0.367-0.135C299.24,198.852,299.516,198.167,299.735,197.455z"/>
		<path fill="#A0CE51" d="M299.163,199.387c-0.031,0.017-0.065,0.034-0.099,0.052C299.098,199.421,299.131,199.403,299.163,199.387z
			"/>
		<path fill="#A0CE51" d="M299.58,199.101c-0.007,0.007-0.016,0.014-0.025,0.022C299.564,199.115,299.573,199.108,299.58,199.101z"
			/>
		<path fill="#A0CE51" d="M299.442,199.209c-0.068,0.05-0.152,0.104-0.25,0.16C299.29,199.313,299.374,199.259,299.442,199.209z"/>
		<path fill="#A0CE51" d="M299.517,199.152c-0.014,0.01-0.029,0.023-0.045,0.035C299.488,199.174,299.502,199.162,299.517,199.152z"
			/>
	</g>
	<g>
		<path fill="#E29256" d="M300.192,191.451c-1.847-1.39-4.596-1.893-7.669-1.893c-5.401,0-9.808,1.538-10.055,6.723
			c0,0.502,0.378,0.455,0.378,0.455h17.081c0.269-1.025,0.413-2.184,0.413-3.34c0-0.661-0.048-1.306-0.139-1.944 M286.708,191.942
			c-0.263,0.126-0.527,0.116-0.593-0.022c-0.067-0.136,0.092-0.35,0.354-0.476c0.262-0.125,0.527-0.116,0.594,0.021
			C287.129,191.603,286.969,191.815,286.708,191.942z M289.574,190.413c-0.017-0.087,0.201-0.203,0.486-0.257
			c0.285-0.055,0.53-0.028,0.547,0.062c0.017,0.089-0.201,0.203-0.486,0.258C289.835,190.53,289.59,190.502,289.574,190.413z
			 M290.643,192.468c-0.286,0.055-0.542-0.033-0.571-0.192c-0.03-0.16,0.177-0.332,0.462-0.387c0.285-0.053,0.542,0.033,0.571,0.193
			C291.135,192.243,290.928,192.414,290.643,192.468z M294.885,190.64c-0.032,0.114-0.285,0.143-0.566,0.064
			c-0.279-0.083-0.477-0.241-0.444-0.354c0.032-0.116,0.286-0.145,0.565-0.064C294.719,190.365,294.919,190.525,294.885,190.64z
			 M296.974,192.445c-0.049,0.144-0.313,0.184-0.587,0.089c-0.275-0.094-0.458-0.287-0.407-0.432
			c0.05-0.144,0.312-0.185,0.587-0.091C296.84,192.107,297.023,192.3,296.974,192.445z M298.949,191.286
			c-0.037,0.102-0.29,0.102-0.561-0.001c-0.272-0.103-0.461-0.267-0.423-0.369c0.039-0.102,0.29-0.102,0.562,0.001
			C298.799,191.018,298.987,191.184,298.949,191.286z"/>
	</g>
	<circle fill="#FFFFFF" cx="229.472" cy="191.588" r="0.937"/>
	<path fill="#FFFFFF" d="M233.834,198.334l0.759,0.148c0,0,0.396,0.224,0.412,0.306c0.017,0.082,0.017,2.348,0.017,2.348
		s-0.659,3.163-0.659,3.212c0,0.05-3.583,1.847-3.583,1.847l-2.789,0.163l-1.189-1.634l0.314-1.422l1.469-1.402
		c0,0,4.44-1.758,4.491-1.776C233.122,200.109,233.834,198.334,233.834,198.334z"/>
	<circle fill="#FFFFFF" cx="231.605" cy="194.206" r="0.759"/>
	<circle fill="#FFFFFF" cx="230.345" cy="196.241" r="0.517"/>
	<path fill="#3838A5" d="M227.754,209.855c0.068,0.307,0.129,0.709,0.082,1.043c-0.091,0.632,0.73,0.418,1.237-0.036
		c0.276-0.247,0.626-0.642,0.929-1.014c-0.738,0.056-1.376,0.051-1.828,0.031C228.007,209.872,227.867,209.864,227.754,209.855z"/>
	<path fill="#4949DB" d="M234.225,197.534c1.703,5.683-2.658,7.669-4.303,7.992c-0.301,0.06-0.621,0.101-0.927,0.097
		c-0.18-0.004-0.358-0.025-0.533-0.061c-0.096-0.021-0.188-0.053-0.281-0.085c-0.11-0.038-0.221-0.065-0.3-0.157
		c-0.074-0.086-0.1-0.201-0.101-0.311c-0.002-0.145,0.02-0.295,0.053-0.436c0.013-0.057,0.043-0.129,0.116-0.095
		c0.062,0.027,0.088,0.095,0.11,0.153c0.068,0.172,0.202,0.293,0.362,0.382c0.061,0.031,0.121,0.059,0.186,0.079
		c0.424,0.139,0.908,0.061,1.327-0.053c5.526-1.584,3.88-7.584,3.88-7.608c-2.421,2.568-5.788,4.664-9.255,4.664
		c-3.467,0-4.491-3.318-4.491-3.318s-0.573-1.122-0.075-1.597c0.5-0.473,1.471-1.67,0.948-3.716
		c-2.894,0.724-2.945,2.595-2.945,2.595c-2.569-0.872-4.314,1.173-4.314,1.173c1.048,1.297,3.368,1.073,3.542,1.073
		c0.175,0,1.148-0.45,1.098,1.199c-0.14,4.341,1.541,7.469,4.922,8.937c-0.412,0.717-1.03,1.039-1.03,1.039
		s-1.297,0.749,0.199,1.123c1.936,0.23,3.4-0.679,4.166-1.317c0.381,0.042,0.774,0.07,1.179,0.085c0.001,0,0.001,0.001,0.002,0.003
		c0.37,0.017,1.411,0.038,2.661-0.142c5.115-0.789,6.561-4.534,6.561-6.934C236.982,199.666,235.781,198.318,234.225,197.534z
		 M229.447,203.082c0.255,0,0.462,0.207,0.462,0.462c0,0.255-0.207,0.46-0.462,0.46c-0.254,0-0.461-0.206-0.461-0.46
		C228.985,203.289,229.192,203.082,229.447,203.082z"/>
	<g opacity="0.2">
		<path d="M229.543,200.747c-0.173,0.091-0.346,0.179-0.522,0.262"/>
		<path d="M230.143,206.599c-1.336,0.194-2.449,0.169-2.843,0.151c0-0.001,0-0.003-0.001-0.004c-0.432-0.015-0.853-0.044-1.259-0.09
			c-1.823-0.2-3.563-0.901-3.563-0.901c-1.763-0.766-3.092-1.956-3.975-3.513c0.522,2.926,2.121,5.06,4.741,6.198
			c-0.412,0.717-1.03,1.039-1.03,1.039s-1.297,0.749,0.199,1.123c1.936,0.23,3.4-0.679,4.166-1.317
			c0.381,0.042,0.774,0.07,1.179,0.085c0.001,0,0.001,0.001,0.002,0.003c0.37,0.017,1.411,0.038,2.661-0.142
			c5.115-0.789,6.561-4.534,6.561-6.934c0-0.436-0.033-0.834-0.096-1.203C236.252,203.4,234.372,205.947,230.143,206.599z"/>
	</g>
	<path fill="#9E9E9E" d="M475.791,150.493c0.026-0.09,0.05-0.182,0.076-0.274c0.063-0.225,0.123-0.452,0.179-0.686
		c0.023-0.096,0.044-0.194,0.066-0.292c0.053-0.238,0.104-0.479,0.15-0.726c0.018-0.097,0.035-0.196,0.052-0.295
		c0.045-0.257,0.086-0.518,0.123-0.785c0.013-0.095,0.026-0.19,0.038-0.286c0.036-0.28,0.067-0.566,0.094-0.857
		c0.005-0.05,0.012-0.097,0.016-0.147c-0.001,0.003-0.002,0.005-0.004,0.008c0.08-0.897,0.126-1.84,0.126-2.842
		c0-15.088-12.179-21.754-12.179-21.754s-1.852,3.307-3.897,7.009v0c-0.017,0.032-0.035,0.064-0.053,0.096
		c-0.169,0.306-0.339,0.615-0.51,0.925c-0.054,0.098-0.108,0.196-0.162,0.294c-0.047,0.086-0.095,0.172-0.142,0.258l0,0
		c-0.578,1.049-1.153,2.098-1.689,3.081c1.818,1.616,3.522,4.824,2.396,6.51c0.907-0.49,1.559-1.063,2.015-1.689
		c2.389,0.027,9.98,0.737,8.87,8.743c-0.707,5.102-3.833,7.272-6.502,8.195c-3.002,0.65-6.396,0.88-10.07,0.88
		c-10.751,0-20.801-4.736-24.548-11.235c-0.031,0.332-0.051,0.663-0.051,0.992c0,8.592,11.735,15.717,24.518,15.717
		c10.015,0,17.839-1.807,20.759-9.844l0.006-0.003c0.011-0.029,0.02-0.061,0.03-0.091c0.026-0.074,0.05-0.152,0.076-0.227
		C475.649,150.947,475.723,150.724,475.791,150.493z"/>
	<path fill="#CECECE" d="M409.565,193.402c6.481,0,8.82,5.056,16.36,5.056c5.273,0,2.957-5.35,0.422-7.603
		c2.722-4.998,6.453-11.663,6.453-11.663s12.179,6.666,12.179,21.754s-9.22,18.022-22.003,18.022s-24.518-7.125-24.518-15.717
		C398.459,198.536,401.602,193.402,409.565,193.402z"/>
	<ellipse fill="#FFFFFF" cx="410.062" cy="200.265" rx="4.928" ry="2.746"/>
	<path fill="#9E9E9E" d="M444.065,208.126c0.026-0.09,0.05-0.182,0.076-0.274c0.063-0.225,0.123-0.452,0.179-0.686
		c0.023-0.096,0.044-0.194,0.066-0.292c0.053-0.238,0.104-0.479,0.15-0.726c0.018-0.097,0.035-0.196,0.052-0.295
		c0.044-0.257,0.086-0.518,0.123-0.785c0.013-0.095,0.026-0.19,0.038-0.286c0.036-0.28,0.067-0.566,0.094-0.857
		c0.005-0.05,0.012-0.097,0.016-0.147c-0.001,0.003-0.002,0.005-0.004,0.008c0.08-0.897,0.126-1.84,0.126-2.842
		c0-15.088-12.179-21.754-12.179-21.754s-1.852,3.307-3.898,7.009v0c-0.017,0.032-0.035,0.064-0.053,0.096
		c-0.169,0.306-0.339,0.615-0.51,0.924c-0.054,0.098-0.108,0.196-0.162,0.294c-0.047,0.086-0.095,0.172-0.142,0.258l0,0
		c-0.578,1.049-1.153,2.098-1.689,3.081c1.818,1.616,3.522,4.824,2.396,6.51c0.907-0.49,1.559-1.063,2.015-1.689
		c2.389,0.027,9.98,0.737,8.87,8.743c-0.707,5.102-3.833,7.272-6.502,8.195c-3.002,0.65-6.396,0.88-10.07,0.88
		c-10.751,0-20.801-4.736-24.548-11.235c-0.031,0.332-0.051,0.663-0.051,0.992c0,8.592,11.735,15.717,24.518,15.717
		c10.015,0,17.839-1.807,20.759-9.844l0.006-0.003c0.011-0.029,0.02-0.061,0.03-0.091c0.026-0.074,0.05-0.152,0.076-0.227
		C443.923,208.581,443.996,208.357,444.065,208.126z"/>
</g>
</svg>
