<?xml version="1.0" encoding="utf-8"?>
<!-- Generated by IcoMoon.io -->
<!DOCTYPE svg PUBLIC "-//W3C//DTD SVG 1.1//EN" "http://www.w3.org/Graphics/SVG/1.1/DTD/svg11.dtd">
<svg version="1.1" xmlns="http://www.w3.org/2000/svg" xmlns:xlink="http://www.w3.org/1999/xlink" width="256" height="64" viewBox="0 0 256 64">
<g transform="translate(0 0)">
	<path d="M35.992 64h-11.992v-32h-8v-11.028l8-0.004-0.013-6.497c0-8.997 2.44-14.471 13.037-14.471h8.824v11.030h-5.514c-4.127 0-4.325 1.541-4.325 4.418l-0.016 5.52h9.918l-1.169 11.028-8.741 0.004-0.008 32z" fill="#ffffff" />
</g>
<g transform="translate(96 0)">
	<path d="M64 12.151c-2.355 1.044-4.885 1.75-7.541 2.067 2.711-1.625 4.793-4.198 5.773-7.264-2.537 1.505-5.347 2.597-8.338 3.186-2.395-2.552-5.808-4.146-9.584-4.146-7.251 0-13.13 5.879-13.13 13.13 0 1.029 0.116 2.031 0.34 2.992-10.912-0.548-20.588-5.775-27.064-13.719-1.13 1.939-1.778 4.195-1.778 6.601 0 4.556 2.318 8.575 5.841 10.929-2.152-0.068-4.177-0.659-5.947-1.642-0.001 0.055-0.001 0.11-0.001 0.165 0 6.362 4.526 11.668 10.533 12.875-1.102 0.3-2.262 0.461-3.459 0.461-0.846 0-1.669-0.083-2.47-0.236 1.671 5.216 6.52 9.013 12.266 9.118-4.494 3.522-10.155 5.621-16.307 5.621-1.060 0-2.105-0.062-3.132-0.184 5.811 3.726 12.713 5.9 20.128 5.9 24.151 0 37.358-20.008 37.358-37.359 0-0.569-0.013-1.136-0.038-1.699 2.566-1.851 4.792-4.164 6.552-6.797z" fill="#ffffff" />
</g>
<g transform="translate(192 0)">
	<path d="M34.942 4c0 0-12.56 0-16.746 0-7.508 0-14.573 5.688-14.573 12.276 0 6.733 5.118 12.167 12.755 12.167 0.531 0 1.047-0.011 1.553-0.047-0.496 0.949-0.85 2.018-0.85 3.128 0 1.871 1.006 3.388 2.279 4.627-0.962 0-1.89 0.028-2.903 0.028-9.299-0-16.456 5.922-16.456 12.064 0 6.049 7.846 9.832 17.146 9.832 10.602 0 16.457-6.015 16.457-12.064 0-4.85-1.431-7.755-5.855-10.883-1.514-1.072-4.408-3.677-4.408-5.209 0-1.795 0.512-2.679 3.214-4.79 2.77-2.164 4.73-5.206 4.73-8.745 0-4.213-1.876-8.319-5.398-9.673h5.31l3.748-2.709zM29.093 44.966c0.133 0.561 0.205 1.138 0.205 1.727 0 4.888-3.149 8.707-12.186 8.707-6.428 0-11.070-4.069-11.070-8.956 0-4.79 5.758-8.778 12.185-8.708 1.5 0.016 2.898 0.257 4.167 0.668 3.489 2.427 5.992 3.798 6.698 6.563zM18.801 26.736c-4.315-0.129-8.415-4.827-9.159-10.491-0.745-5.667 2.148-10.003 6.462-9.874 4.313 0.13 8.415 4.676 9.16 10.341 0.744 5.666-2.149 10.154-6.462 10.024zM52 16v-12h-4v12h-12v4h12v12h4v-12h12v-4z" fill="#ffffff" />
</g>
</svg>
